<?xml version="1.0" encoding="utf-8"?>
<!-- Generator: Adobe Illustrator 23.1.0, SVG Export Plug-In . SVG Version: 6.00 Build 0)  -->
<svg version="1.1" id="レイヤー_1" xmlns="http://www.w3.org/2000/svg" xmlns:xlink="http://www.w3.org/1999/xlink" x="0px"
	 y="0px" viewBox="0 0 1000 1000" style="enable-background:new 0 0 1000 1000;" xml:space="preserve">
<style type="text/css">
	.st0{fill:#4DAB53;}
</style>
<g>
	<path class="st0" d="M488.9,733.8c-26.1,0-52.2,0.1-78.3-0.1c-5.8,0-11.8-0.4-17.4-1.7c-23-5.3-37.1-23.2-35.6-48.4
		c0.7-11.6-3.5-15.9-12.8-21.3c-85.4-49.5-137-123-152.5-220.8c-7.1-44.6-3.3-88.7,9.6-132c0.6-2.1,0.6-4.5,0.2-6.7
		c-8.1-46.8,5.9-85.2,43.4-114.8c1.9-1.5,3.4-3.6,4.6-5.7c24.3-41.9,60.6-61.8,109-59.5c2.8,0.1,5.8-0.4,8.4-1.5
		c93.8-40.1,186.4-37.2,274.6,13.6c89.6,51.5,140.1,130.8,151.4,234.1c3.6,33.1,0.8,65.9-6.4,98.3c-0.6,2.7-0.7,5.9,0.1,8.5
		c14.5,43.3,2.8,94.4-39.5,127.1c-2.4,1.8-4.3,4.5-5.9,7.1c-23.8,40.3-59,59.9-105.9,58.4c-2.1-0.1-4.2-0.6-6.2-0.3
		c-6.6,0.7-9.5,4.2-9.2,11c0.9,19.6-3.9,37-22.1,47.1c-7.4,4.1-16.5,6.7-24.9,6.9c-28.2,0.8-56.4,0.3-84.6,0.3
		C488.9,733.7,488.9,733.7,488.9,733.8z M727.2,391c-1.4-10.2-2.4-26.9-6-43c-12.3-55.3-40.9-100.8-85.8-135.4
		c-47.1-36.2-100.4-52.6-160-48.5c-35.7,2.4-68.7,13.1-99.7,30.2c-3,1.6-5.2,1.9-8.5,0.5c-27.5-11.5-57.3,5.8-61,35.5
		c-0.4,3.6-1.4,5.3-5.2,6.4c-28.6,8.3-41,38.1-27.1,64.5c1.3,2.5,1.6,6.5,0.5,9.1c-17.9,44.7-22,90.7-11.6,137.6
		c12.3,55.3,40.9,100.8,85.9,135.4c47.1,36.3,100.4,52.5,160,48.5c38.3-2.6,73.5-14.4,106.1-34.1c4.1-2.5,7-2.5,11.4-0.7
		c26.9,11.2,56.8-6.1,60.3-34.9c0.5-4.5,2.2-6.1,6.4-7.4c30-8.8,41.6-44.7,22.3-69.1c-3.1-3.9-3.1-6.9-1.5-11.1
		C722.7,449.6,726.2,423.7,727.2,391z"/>
	<path class="st0" d="M486.6,798.3c-32.2,0-64.3,0-96.5-0.1c-4.6,0-9.2-0.3-13.6-1.3c-12.3-3-19.4-12.5-19.4-25.1
		c0-12.6,7-22.1,19.2-25.3c4-1,8.2-1.5,12.4-1.5c64.1-0.1,128.2,0,192.3,0c4,0,7.9,0.2,11.9,0.6c14.8,1.7,24,11.9,24,26.4
		c-0.1,14.2-9.7,24.6-24.4,26c-5.4,0.5-10.8,0.3-16.3,0.3C546.4,798.3,516.5,798.3,486.6,798.3z"/>
	<path class="st0" d="M487.7,809.6c32,0,63.9,0,95.8,0c4.3,0,8.8,0.2,13,1.2c13.4,3,20.8,13.1,20.3,26.8
		c-0.5,12.7-8.9,22.3-21.9,24.4c-4.5,0.7-9.1,1-13.7,1c-62.8,0.1-125.7,0.1-188.6,0c-5.2,0-10.5-0.2-15.5-1.3
		c-12.5-2.7-20-12.5-20-25.3c0-12.9,7.3-22.5,19.8-25.5c4-0.9,8.3-1.3,12.4-1.3C422.1,809.5,454.9,809.6,487.7,809.6
		C487.7,809.6,487.7,809.6,487.7,809.6z"/>
	<path class="st0" d="M486,873.1c22.3,0,44.7-0.1,67,0.1c5.6,0.1,11.3,0.6,16.6,2.2c10.2,3.1,16,11.8,15.9,22.3
		c-0.1,10.4-6,18.8-16.3,22c-4.5,1.4-9.4,2.2-14.1,2.2c-46.1,0.2-92.3,0.2-138.4,0c-5.1,0-10.5-0.9-15.3-2.5
		c-9.6-3.2-15.2-11.5-15.4-21.4c-0.1-10.3,5.2-18.9,15.1-22.2c5.2-1.7,11-2.5,16.6-2.5C440.5,872.9,463.2,873.1,486,873.1
		C486,873.1,486,873.1,486,873.1z"/>
	<path class="st0" d="M635.4,304.8c18.9,0,34,14.5,34,32.8c0,18.2-15.1,32.8-34,32.8s-34-14.6-34-32.9
		C601.4,319.3,616.5,304.8,635.4,304.8z"/>
	<path class="st0" d="M569.1,357.4c0.1,18.3-14.9,32.9-33.8,33c-18.9,0.1-34-14.4-34.1-32.7c-0.1-18.3,14.9-32.9,33.8-32.9
		C553.9,324.7,569,339.1,569.1,357.4z"/>
	<path class="st0" d="M567.6,294.1c-18.9,0-34-14.5-34-32.8c0-18.3,15.1-32.8,34-32.8c18.9,0,34,14.6,34,32.8
		C601.6,279.6,586.5,294.1,567.6,294.1z"/>
</g>
</svg>
